<svg xmlns="http://www.w3.org/2000/svg" xmlns:xlink="http://www.w3.org/1999/xlink" viewBox="0 0 2808.6 419"><defs><style>.cls-1,.cls-13,.cls-4{fill-rule:evenodd;}.cls-1{fill:url(#linear-gradient);}.cls-10,.cls-12,.cls-2,.cls-3,.cls-5,.cls-8{fill:none;}.cls-12,.cls-2{stroke:#1de9b6;}.cls-2,.cls-3{opacity:0.3;isolation:isolate;}.cls-10,.cls-3{stroke:#ef5350;}.cls-4,.cls-6{fill:#0aae85;}.cls-5{stroke:#0aae85;}.cls-10,.cls-12,.cls-5,.cls-8{stroke-linecap:round;stroke-width:2px;}.cls-7{fill:#c13734;}.cls-8{stroke:#c13734;}.cls-9{fill:#ef5350;}.cls-11{fill:#1de9b6;}.cls-13{fill:url(#linear-gradient-2);}</style><linearGradient id="linear-gradient" x1="702.55" y1="406" x2="702.55" y2="115.22" gradientTransform="matrix(1, 0, 0, -1, 0, 450.07)" gradientUnits="userSpaceOnUse"><stop offset="0" stop-color="#3e3e7e"/><stop offset="1" stop-color="#2a2a5e" stop-opacity="0"/></linearGradient><linearGradient id="linear-gradient-2" x1="2106.43" y1="405.7" x2="2106.43" y2="114.92" xlink:href="#linear-gradient"/></defs><title>Sepehr Mohaghegh</title><g id="Layer_2" data-name="Layer 2"><g id="Layer_1-2" data-name="Layer 1"><path class="cls-1" d="M1404.4,351.1H.4V251.7h0l12.9-27.6c12.9-27.6,38.6-82.8,64.4-104.9s51.6-11,77.3,11,51.6,55.3,77.3,55.3,51.6-33.2,77.4-16.6,51.5,82.8,77.3,82.8,51.5-66.2,77.3-104.9,51.5-49.7,77.3-22.1,51.5,93.9,77.3,116,51.6,0,77.3-11.1,51.6-11,77.3,0,51.6,33.2,77.4,27.6,51.5-38.6,77.3-77.3,51.5-82.8,77.3-88.3,51.5,27.6,77.3,60.7,51.5,66.3,77.3,55.2,51.6-66.2,77.3-55.2,51.6,88.4,77.3,121.5,51.6,22.1,77.4,0c5.8-5,12.6-11.4,12.6-11.4"/><path class="cls-2" d="M.4,119.3C16.9,97,35.6,73,40,66.8,58.4,41,57.2,33.8,80.2,19.3c25.4-16.1,40-6.7,65.8,8.9s51.5,38.9,77.3,38.9,51.5-23.4,77.3-11.7,51.5,58.3,77.3,58.3,51.5-46.6,77.3-73.9,51.5-35,77.3-15.5S584,90.4,609.8,106s51.5,0,77.3-7.8a130.6,130.6,0,0,1,77.3,0c25.8,7.8,51.5,23.3,77.3,19.4S893.2,90.4,919,63.2,970.5,4.8,996.3.9s51.5,19.5,77.3,42.8,51.5,46.7,77.3,38.9,51.5-46.7,77.3-38.9,51.5,62.3,77.3,85.6,47.3,32.3,71.7,14.7c8.8-6.4,11.1-8.7,27.2-24.5"/><path class="cls-3" d="M.4,356.1c21.5-5.1,30-9.7,49.6-25.3,18.9-13.8,26.1-27.1,36.7-37.1,25.8-19.8,51.5-9.9,77.3,9.9s51.5,49.5,77.3,49.5,51.5-29.7,77.3-14.8,51.5,74.2,77.3,74.2,51.5-59.4,77.3-94,51.5-44.6,77.3-19.8,51.5,84.1,77.3,103.9,51.5,0,77.3-9.9,51.5-9.9,77.3,0,51.5,29.7,77.3,24.7,51.5-34.6,77.3-69.2,51.5-74.3,77.3-79.2,51.5,24.7,77.3,54.4,51.5,59.4,77.3,49.5,51.5-59.4,77.3-49.5,34.5,49.9,60.3,79.6,65.7-39.4,97.9-46.9"/><path class="cls-4" d="M42.4,162.4a1,1,0,0,0-2,0v7.8h-7a3.9,3.9,0,0,0-4,4v46.4a4,4,0,0,0,4,4h7v3.9a1,1,0,0,0,2,0v-3.9h7a4,4,0,0,0,4-4V174.2a3.9,3.9,0,0,0-4-4h-7Z"/><path class="cls-5" d="M94.4,44V219"/><rect class="cls-6" x="83.4" y="58" width="24" height="133" rx="4"/><rect class="cls-7" x="137.4" y="98" width="24" height="102" rx="4"/><path class="cls-8" d="M149.4,81V213"/><rect class="cls-9" x="191.4" y="117" width="24" height="66" rx="4"/><path class="cls-10" d="M203.4,108v91"/><rect class="cls-11" x="245.4" y="168" width="24" height="35" rx="4"/><path class="cls-12" d="M257.4,161v46"/><rect class="cls-6" x="299.4" y="98" width="24" height="176" rx="4"/><path class="cls-5" d="M311.4,87V281"/><rect class="cls-7" x="353.4" y="205" width="24" height="39" rx="4"/><path class="cls-8" d="M365.4,192v56"/><rect class="cls-6" x="407.4" y="137" width="24" height="129" rx="4"/><path class="cls-5" d="M419.4,133V277"/><rect class="cls-11" x="461.4" y="96" width="24" height="97" rx="4"/><path class="cls-12" d="M473.4,81V204"/><rect class="cls-6" x="515.4" y="109" width="24" height="29" rx="4"/><path class="cls-5" d="M527.4,105v37"/><rect class="cls-7" x="569.4" y="135" width="24" height="123" rx="4"/><path class="cls-8" d="M581.4,116V271"/><rect class="cls-9" x="624.4" y="224" width="24" height="37" rx="4"/><path class="cls-10" d="M636.4,216v48"/><rect class="cls-7" x="678.4" y="211" width="24" height="44" rx="4"/><path class="cls-8" d="M690.4,197v67"/><rect class="cls-11" x="732.4" y="162" width="24" height="118" rx="4"/><path class="cls-12" d="M744.4,145V314"/><rect class="cls-6" x="786.4" y="193" width="24" height="60" rx="4"/><path class="cls-5" d="M798.4,177v93"/><rect class="cls-9" x="840.4" y="163" width="24" height="107" rx="4"/><path class="cls-10" d="M852.4,151V275"/><rect class="cls-11" x="894.4" y="151" width="24" height="93" rx="4"/><path class="cls-12" d="M906.4,143V255"/><rect class="cls-6" x="948.4" y="109" width="24" height="47" rx="4"/><path class="cls-5" d="M960.4,106v53"/><rect class="cls-6" x="1002.4" y="79" width="24" height="24" rx="4"/><path class="cls-5" d="M1013.4,76v36"/><rect class="cls-11" x="1056.4" y="83" width="24" height="145" rx="4"/><path class="cls-12" d="M1068.4,64V238"/><rect class="cls-7" x="1110.4" y="155" width="24" height="37" rx="4"/><path class="cls-8" d="M1122.4,151v45"/><rect class="cls-9" x="1164.4" y="109" width="24" height="139" rx="4"/><path class="cls-10" d="M1176.4,83V263"/><rect class="cls-11" x="1218.4" y="141" width="24" height="50" rx="4"/><path class="cls-12" d="M1230.4,133v66"/><rect class="cls-9" x="1272.4" y="150" width="24" height="133" rx="4"/><path class="cls-10" d="M1284.4,140V303"/><rect class="cls-9" x="1326.4" y="202" width="24" height="169" rx="4"/><path class="cls-10" d="M1338.4,179V380"/><rect class="cls-6" x="1380.4" y="246" width="24" height="53" rx="4"/><path class="cls-5" d="M1392.4,240v63"/><path class="cls-13" d="M2808.3,351.4h-1404V252h0l12.9-27.6c12.9-27.6,38.6-82.8,64.4-104.9s51.5-11,77.3,11,51.6,55.3,77.3,55.3,51.6-33.2,77.3-16.6,51.6,82.8,77.4,82.8,51.5-66.2,77.3-104.9,51.5-49.7,77.3-22.1,51.5,93.9,77.3,116,51.5,0,77.3-11.1,51.6-11,77.3,0,51.6,33.2,77.3,27.6,51.6-38.6,77.4-77.3,51.5-82.8,77.3-88.3,51.5,27.6,77.3,60.7,51.5,66.3,77.3,55.2,51.5-66.2,77.3-55.2,51.6,88.4,77.3,121.5,51.6,22.1,77.3,0c5.9-5,12.7-11.4,12.7-11.4"/><path class="cls-2" d="M1404.3,119.5c16.5-22.2,35.2-46.2,39.6-52.4,18.4-25.8,17.2-33,40.2-47.5,25.4-16.1,40-6.7,65.8,8.9s51.5,38.9,77.3,38.9,51.5-23.4,77.3-11.7S1756,114,1781.8,114s51.5-46.6,77.3-73.9,51.5-35,77.3-15.5,51.5,66.1,77.3,81.7,51.5,0,77.3-7.8a130.6,130.6,0,0,1,77.3,0c25.8,7.8,51.5,23.3,77.3,19.4s51.5-27.2,77.3-54.4,51.5-58.4,77.3-62.3,51.5,19.5,77.3,42.8,51.5,46.7,77.3,38.9,51.5-46.7,77.3-38.9,51.5,62.3,77.3,85.6,47.2,32.3,71.7,14.7c8.8-6.4,11.1-8.7,27.2-24.5"/><path class="cls-3" d="M1404.3,356.1c26.3-7.1,32.9-10.6,51.6-26.4,18.9-13.9,24.1-25.7,34.7-35.7,25.8-19.8,51.5-9.9,77.3,9.9s51.5,49.5,77.3,49.5,51.5-29.7,77.3-14.8,51.5,74.2,77.3,74.2,51.5-59.4,77.3-94,51.5-44.6,77.3-19.8,51.5,84.1,77.3,103.9,51.5,0,77.3-9.9,51.5-9.9,77.3,0,51.5,29.7,77.3,24.7,51.5-34.6,77.3-69.2,51.5-74.3,77.3-79.2,51.5,24.7,77.3,54.4,51.5,59.4,77.3,49.5,51.5-59.4,77.3-49.5,34.5,49.9,60.3,79.6,65.7-39.4,97.9-46.9"/><path class="cls-4" d="M1446.3,162.7a1.1,1.1,0,0,0-1-1,1,1,0,0,0-1,1v7.8h-7a3.9,3.9,0,0,0-4,4v46.4a4,4,0,0,0,4,4h7v3.9a.9.9,0,0,0,1,1,1,1,0,0,0,1-1v-3.9h7a4,4,0,0,0,4-4V174.5a3.9,3.9,0,0,0-4-4h-7Z"/><path class="cls-5" d="M1498.3,44.3v175"/><rect class="cls-6" x="1487.3" y="58.3" width="24" height="133" rx="4"/><rect class="cls-7" x="1541.3" y="98.3" width="24" height="102" rx="4"/><path class="cls-8" d="M1553.3,81.3v132"/><rect class="cls-9" x="1595.3" y="117.3" width="24" height="66" rx="4"/><path class="cls-10" d="M1607.3,108.3v91"/><rect class="cls-11" x="1649.3" y="168.3" width="24" height="35" rx="4"/><path class="cls-12" d="M1661.3,161.3v46"/><rect class="cls-6" x="1703.3" y="98.3" width="24" height="176" rx="4"/><path class="cls-5" d="M1715.3,87.3v194"/><rect class="cls-7" x="1757.3" y="205.3" width="24" height="39" rx="4"/><path class="cls-8" d="M1769.3,192.3v56"/><rect class="cls-6" x="1811.3" y="137.3" width="24" height="129" rx="4"/><path class="cls-5" d="M1823.3,133.3v144"/><rect class="cls-11" x="1865.3" y="96.3" width="24" height="97" rx="4"/><path class="cls-12" d="M1877.3,81.3v123"/><rect class="cls-6" x="1919.3" y="109.3" width="24" height="29" rx="4"/><path class="cls-5" d="M1931.3,105.3v37"/><rect class="cls-7" x="1973.3" y="135.3" width="24" height="123" rx="4"/><path class="cls-8" d="M1985.3,116.3v155"/><rect class="cls-9" x="2028.3" y="224.3" width="24" height="37" rx="4"/><path class="cls-10" d="M2040.3,216.3v48"/><rect class="cls-7" x="2082.3" y="211.3" width="24" height="44" rx="4"/><path class="cls-8" d="M2094.3,197.3v67"/><rect class="cls-11" x="2136.3" y="162.3" width="24" height="118" rx="4"/><path class="cls-12" d="M2148.3,145.3v169"/><rect class="cls-6" x="2190.3" y="193.3" width="24" height="60" rx="4"/><path class="cls-5" d="M2202.3,177.3v93"/><rect class="cls-9" x="2244.3" y="163.3" width="24" height="107" rx="4"/><path class="cls-10" d="M2256.3,151.3v124"/><rect class="cls-11" x="2298.3" y="151.3" width="24" height="93" rx="4"/><path class="cls-12" d="M2310.3,143.3v112"/><rect class="cls-6" x="2352.3" y="109.3" width="24" height="47" rx="4"/><path class="cls-5" d="M2364.3,106.3v53"/><rect class="cls-6" x="2406.3" y="79.3" width="24" height="24" rx="4"/><path class="cls-5" d="M2417.3,76.3v36"/><rect class="cls-11" x="2460.3" y="83.3" width="24" height="145" rx="4"/><path class="cls-12" d="M2472.3,64.3v174"/><rect class="cls-7" x="2514.3" y="155.3" width="24" height="37" rx="4"/><path class="cls-8" d="M2526.3,151.3v45"/><rect class="cls-9" x="2568.3" y="109.3" width="24" height="139" rx="4"/><path class="cls-10" d="M2580.3,83.3v180"/><rect class="cls-11" x="2622.3" y="141.3" width="24" height="50" rx="4"/><path class="cls-12" d="M2634.3,133.3v66"/><rect class="cls-9" x="2676.3" y="150.3" width="24" height="133" rx="4"/><path class="cls-10" d="M2688.3,140.3v163"/><rect class="cls-9" x="2730.3" y="202.3" width="24" height="169" rx="4"/><path class="cls-10" d="M2742.3,179.3v201"/><rect class="cls-6" x="2784.3" y="246.3" width="24" height="53" rx="4"/><path class="cls-5" d="M2796.3,240.3v63"/></g></g></svg>