<svg xmlns="http://www.w3.org/2000/svg" version="1.1" xmlns:xlink="http://www.w3.org/1999/xlink" xmlns:svgjs="http://svgjs.com/svgjs" width="1800" height="1200" preserveAspectRatio="none" viewBox="0 0 1800 1200"><g mask="url(&quot;#SvgjsMask2050&quot;)" fill="none"><rect width="1800" height="1200" x="0" y="0" fill="rgba(30, 41, 59, 1)"></rect><g mask="url(&quot;#SvgjsMask2051&quot;)"><path d="M925 1275L925 1225L925 1175" stroke="rgba(66, 91, 131, 1)" stroke-width="8.33"></path><path d="M912.5 1175 a12.5 12.5 0 1 0 25 0 a12.5 12.5 0 1 0 -25 0z" fill="rgba(66, 91, 131, 1)"></path><path d="M825 925L775 875M825 1025L775 975L775 925L725 875L725 825M825 1125L875 1075L875 1025L875 975M875 1275L825 1225L825 1175L825 1125L825 1075L825 1025L825 975L825 925L825 875" stroke="rgba(131, 131, 131, 1)" stroke-width="8.33"></path><path d="M812.5 875 a12.5 12.5 0 1 0 25 0 a12.5 12.5 0 1 0 -25 0zM762.5 875 a12.5 12.5 0 1 0 25 0 a12.5 12.5 0 1 0 -25 0zM712.5 825 a12.5 12.5 0 1 0 25 0 a12.5 12.5 0 1 0 -25 0zM862.5 975 a12.5 12.5 0 1 0 25 0 a12.5 12.5 0 1 0 -25 0z" fill="rgba(131, 131, 131, 1)"></path><path d="M975 975L925 925M975 1075L925 1025L925 975M975 875L925 825L925 775M975 1275L975 1225L975 1175L975 1125L975 1075L975 1025L975 975L975 925L975 875L975 825" stroke="rgba(221, 153, 17, 1)" stroke-width="8.33"></path><path d="M962.5 825 a12.5 12.5 0 1 0 25 0 a12.5 12.5 0 1 0 -25 0zM912.5 925 a12.5 12.5 0 1 0 25 0 a12.5 12.5 0 1 0 -25 0zM912.5 975 a12.5 12.5 0 1 0 25 0 a12.5 12.5 0 1 0 -25 0zM912.5 775 a12.5 12.5 0 1 0 25 0 a12.5 12.5 0 1 0 -25 0z" fill="rgba(221, 153, 17, 1)"></path><path d="M1025 825L1025 775L1025 725L1025 675L1025 625M1025 1275L1025 1225L1025 1175L1025 1125L1025 1075L1025 1025L1025 975L1025 925L1025 875L1025 825L1075 775L1075 725L1075 675L1075 625" stroke="rgba(66, 91, 131, 1)" stroke-width="8.33"></path><path d="M1062.5 625 a12.5 12.5 0 1 0 25 0 a12.5 12.5 0 1 0 -25 0zM1012.5 625 a12.5 12.5 0 1 0 25 0 a12.5 12.5 0 1 0 -25 0z" fill="rgba(66, 91, 131, 1)"></path><path d="M725 1075L775 1025M725 1175L775 1125L775 1075M775 1225L775 1175M775 1275L775 1225L725 1175L725 1125L725 1075L725 1025" stroke="rgba(66, 91, 131, 1)" stroke-width="8.33"></path><path d="M712.5 1025 a12.5 12.5 0 1 0 25 0 a12.5 12.5 0 1 0 -25 0zM762.5 1025 a12.5 12.5 0 1 0 25 0 a12.5 12.5 0 1 0 -25 0zM762.5 1075 a12.5 12.5 0 1 0 25 0 a12.5 12.5 0 1 0 -25 0zM762.5 1175 a12.5 12.5 0 1 0 25 0 a12.5 12.5 0 1 0 -25 0z" fill="rgba(66, 91, 131, 1)"></path><path d="M1125 725L1175 675L1175 625M1075 1275L1075 1225L1075 1175L1075 1125L1075 1075L1075 1025L1075 975L1075 925L1075 875L1075 825L1125 775L1125 725L1125 675" stroke="rgba(221, 153, 17, 1)" stroke-width="8.33"></path><path d="M1112.5 675 a12.5 12.5 0 1 0 25 0 a12.5 12.5 0 1 0 -25 0zM1162.5 625 a12.5 12.5 0 1 0 25 0 a12.5 12.5 0 1 0 -25 0z" fill="rgba(221, 153, 17, 1)"></path><path d="M725 1275L725 1225L675 1175L675 1125L675 1075" stroke="rgba(131, 131, 131, 1)" stroke-width="8.33"></path><path d="M662.5 1075 a12.5 12.5 0 1 0 25 0 a12.5 12.5 0 1 0 -25 0z" fill="rgba(131, 131, 131, 1)"></path><path d="M1225 725L1275 675M1125 925L1175 875M1175 775L1175 725M1125 1275L1125 1225L1125 1175L1125 1125L1125 1075L1125 1025L1125 975L1125 925L1125 875L1125 825L1175 775L1225 725L1225 675" stroke="rgba(66, 91, 131, 1)" stroke-width="8.33"></path><path d="M1212.5 675 a12.5 12.5 0 1 0 25 0 a12.5 12.5 0 1 0 -25 0zM1262.5 675 a12.5 12.5 0 1 0 25 0 a12.5 12.5 0 1 0 -25 0zM1162.5 875 a12.5 12.5 0 1 0 25 0 a12.5 12.5 0 1 0 -25 0zM1162.5 725 a12.5 12.5 0 1 0 25 0 a12.5 12.5 0 1 0 -25 0z" fill="rgba(66, 91, 131, 1)"></path><path d="M675 1275L675 1225L625 1175" stroke="rgba(66, 91, 131, 1)" stroke-width="8.33"></path><path d="M612.5 1175 a12.5 12.5 0 1 0 25 0 a12.5 12.5 0 1 0 -25 0z" fill="rgba(66, 91, 131, 1)"></path><path d="M1175 1275L1175 1225L1175 1175L1175 1125L1175 1075" stroke="rgba(66, 91, 131, 1)" stroke-width="8.33"></path><path d="M1162.5 1075 a12.5 12.5 0 1 0 25 0 a12.5 12.5 0 1 0 -25 0z" fill="rgba(66, 91, 131, 1)"></path><path d="M575 925L625 875M575 1075L625 1025M575 1125L625 1075M625 1275L625 1225L575 1175L575 1125L575 1075L575 1025L575 975L575 925L575 875L575 825L575 775L575 725L525 675L525 625" stroke="rgba(66, 91, 131, 1)" stroke-width="8.33"></path><path d="M512.5 625 a12.5 12.5 0 1 0 25 0 a12.5 12.5 0 1 0 -25 0zM612.5 875 a12.5 12.5 0 1 0 25 0 a12.5 12.5 0 1 0 -25 0zM612.5 1025 a12.5 12.5 0 1 0 25 0 a12.5 12.5 0 1 0 -25 0zM612.5 1075 a12.5 12.5 0 1 0 25 0 a12.5 12.5 0 1 0 -25 0z" fill="rgba(66, 91, 131, 1)"></path><path d="M1225 1025L1275 975L1275 925L1275 875M1225 1175L1275 1125M1225 975L1175 925M1225 1275L1225 1225L1225 1175L1225 1125L1225 1075L1225 1025L1225 975L1225 925" stroke="rgba(221, 153, 17, 1)" stroke-width="8.33"></path><path d="M1212.5 925 a12.5 12.5 0 1 0 25 0 a12.5 12.5 0 1 0 -25 0zM1262.5 875 a12.5 12.5 0 1 0 25 0 a12.5 12.5 0 1 0 -25 0zM1262.5 1125 a12.5 12.5 0 1 0 25 0 a12.5 12.5 0 1 0 -25 0zM1162.5 925 a12.5 12.5 0 1 0 25 0 a12.5 12.5 0 1 0 -25 0z" fill="rgba(221, 153, 17, 1)"></path><path d="M525 875L525 825M525 975L475 925L475 875M525 1075L475 1025L475 975M575 1275L575 1225L525 1175L525 1125L525 1075L525 1025L525 975L525 925L525 875L475 825L475 775" stroke="rgba(221, 153, 17, 1)" stroke-width="8.33"></path><path d="M462.5 775 a12.5 12.5 0 1 0 25 0 a12.5 12.5 0 1 0 -25 0zM512.5 825 a12.5 12.5 0 1 0 25 0 a12.5 12.5 0 1 0 -25 0zM462.5 875 a12.5 12.5 0 1 0 25 0 a12.5 12.5 0 1 0 -25 0zM462.5 975 a12.5 12.5 0 1 0 25 0 a12.5 12.5 0 1 0 -25 0z" fill="rgba(221, 153, 17, 1)"></path><path d="M1275 1275L1275 1225" stroke="rgba(131, 131, 131, 1)" stroke-width="8.33"></path><path d="M1262.5 1225 a12.5 12.5 0 1 0 25 0 a12.5 12.5 0 1 0 -25 0z" fill="rgba(131, 131, 131, 1)"></path><path d="M525 1275L525 1225L475 1175" stroke="rgba(221, 153, 17, 1)" stroke-width="8.33"></path><path d="M462.5 1175 a12.5 12.5 0 1 0 25 0 a12.5 12.5 0 1 0 -25 0z" fill="rgba(221, 153, 17, 1)"></path><path d="M425 1125L475 1075M425 925L375 875L375 825L375 775M425 1025L375 975L375 925M475 1275L475 1225L425 1175L425 1125L425 1075L425 1025L425 975L425 925L425 875L425 825L425 775L475 725L475 675" stroke="rgba(131, 131, 131, 1)" stroke-width="8.33"></path><path d="M462.5 675 a12.5 12.5 0 1 0 25 0 a12.5 12.5 0 1 0 -25 0zM462.5 1075 a12.5 12.5 0 1 0 25 0 a12.5 12.5 0 1 0 -25 0zM362.5 775 a12.5 12.5 0 1 0 25 0 a12.5 12.5 0 1 0 -25 0zM362.5 925 a12.5 12.5 0 1 0 25 0 a12.5 12.5 0 1 0 -25 0z" fill="rgba(131, 131, 131, 1)"></path></g></g><defs><mask id="SvgjsMask2050"><rect width="1800" height="1200" fill="#ffffff"></rect></mask><mask id="SvgjsMask2051"><rect width="1800" height="1200" fill="white"></rect><path d="M918.75 1175 a6.25 6.25 0 1 0 12.5 0 a6.25 6.25 0 1 0 -12.5 0z" fill="black"></path><path d="M818.75 875 a6.25 6.25 0 1 0 12.5 0 a6.25 6.25 0 1 0 -12.5 0zM768.75 875 a6.25 6.25 0 1 0 12.5 0 a6.25 6.25 0 1 0 -12.5 0zM718.75 825 a6.25 6.25 0 1 0 12.5 0 a6.25 6.25 0 1 0 -12.5 0zM868.75 975 a6.25 6.25 0 1 0 12.5 0 a6.25 6.25 0 1 0 -12.5 0z" fill="black"></path><path d="M968.75 825 a6.25 6.25 0 1 0 12.5 0 a6.25 6.25 0 1 0 -12.5 0zM918.75 925 a6.25 6.25 0 1 0 12.5 0 a6.25 6.25 0 1 0 -12.5 0zM918.75 975 a6.25 6.25 0 1 0 12.5 0 a6.25 6.25 0 1 0 -12.5 0zM918.75 775 a6.25 6.25 0 1 0 12.5 0 a6.25 6.25 0 1 0 -12.5 0z" fill="black"></path><path d="M1068.75 625 a6.25 6.25 0 1 0 12.5 0 a6.25 6.25 0 1 0 -12.5 0zM1018.75 625 a6.25 6.25 0 1 0 12.5 0 a6.25 6.25 0 1 0 -12.5 0z" fill="black"></path><path d="M718.75 1025 a6.25 6.25 0 1 0 12.5 0 a6.25 6.25 0 1 0 -12.5 0zM768.75 1025 a6.25 6.25 0 1 0 12.5 0 a6.25 6.25 0 1 0 -12.5 0zM768.75 1075 a6.25 6.25 0 1 0 12.5 0 a6.25 6.25 0 1 0 -12.5 0zM768.75 1175 a6.25 6.25 0 1 0 12.5 0 a6.25 6.25 0 1 0 -12.5 0z" fill="black"></path><path d="M1118.75 675 a6.25 6.25 0 1 0 12.5 0 a6.25 6.25 0 1 0 -12.5 0zM1168.75 625 a6.25 6.25 0 1 0 12.5 0 a6.25 6.25 0 1 0 -12.5 0z" fill="black"></path><path d="M668.75 1075 a6.25 6.25 0 1 0 12.5 0 a6.25 6.25 0 1 0 -12.5 0z" fill="black"></path><path d="M1218.75 675 a6.25 6.25 0 1 0 12.5 0 a6.25 6.25 0 1 0 -12.5 0zM1268.75 675 a6.25 6.25 0 1 0 12.5 0 a6.25 6.25 0 1 0 -12.5 0zM1168.75 875 a6.25 6.25 0 1 0 12.5 0 a6.25 6.25 0 1 0 -12.5 0zM1168.75 725 a6.25 6.25 0 1 0 12.5 0 a6.25 6.25 0 1 0 -12.5 0z" fill="black"></path><path d="M618.75 1175 a6.25 6.25 0 1 0 12.5 0 a6.25 6.25 0 1 0 -12.5 0z" fill="black"></path><path d="M1168.75 1075 a6.25 6.25 0 1 0 12.5 0 a6.25 6.25 0 1 0 -12.5 0z" fill="black"></path><path d="M518.75 625 a6.25 6.25 0 1 0 12.5 0 a6.25 6.25 0 1 0 -12.5 0zM618.75 875 a6.25 6.25 0 1 0 12.5 0 a6.25 6.25 0 1 0 -12.5 0zM618.75 1025 a6.25 6.25 0 1 0 12.5 0 a6.25 6.25 0 1 0 -12.5 0zM618.75 1075 a6.25 6.25 0 1 0 12.5 0 a6.25 6.25 0 1 0 -12.5 0z" fill="black"></path><path d="M1218.75 925 a6.25 6.25 0 1 0 12.5 0 a6.25 6.25 0 1 0 -12.5 0zM1268.75 875 a6.25 6.25 0 1 0 12.5 0 a6.25 6.25 0 1 0 -12.5 0zM1268.75 1125 a6.25 6.25 0 1 0 12.5 0 a6.25 6.25 0 1 0 -12.5 0zM1168.75 925 a6.25 6.25 0 1 0 12.5 0 a6.25 6.25 0 1 0 -12.5 0z" fill="black"></path><path d="M468.75 775 a6.25 6.25 0 1 0 12.5 0 a6.25 6.25 0 1 0 -12.5 0zM518.75 825 a6.25 6.25 0 1 0 12.5 0 a6.25 6.25 0 1 0 -12.5 0zM468.75 875 a6.25 6.25 0 1 0 12.5 0 a6.25 6.25 0 1 0 -12.5 0zM468.75 975 a6.25 6.25 0 1 0 12.5 0 a6.25 6.25 0 1 0 -12.5 0z" fill="black"></path><path d="M1268.75 1225 a6.25 6.25 0 1 0 12.5 0 a6.25 6.25 0 1 0 -12.5 0z" fill="black"></path><path d="M468.75 1175 a6.25 6.25 0 1 0 12.5 0 a6.25 6.25 0 1 0 -12.5 0z" fill="black"></path><path d="M468.75 675 a6.25 6.25 0 1 0 12.5 0 a6.25 6.25 0 1 0 -12.5 0zM468.75 1075 a6.25 6.25 0 1 0 12.5 0 a6.25 6.25 0 1 0 -12.5 0zM368.75 775 a6.25 6.25 0 1 0 12.5 0 a6.25 6.25 0 1 0 -12.5 0zM368.75 925 a6.25 6.25 0 1 0 12.5 0 a6.25 6.25 0 1 0 -12.5 0z" fill="black"></path></mask></defs></svg>