<svg xmlns="http://www.w3.org/2000/svg" version="1.1" xmlns:xlink="http://www.w3.org/1999/xlink" xmlns:svgjs="http://svgjs.com/svgjs" width="2000" height="350" preserveAspectRatio="none" viewBox="0 0 2000 350"><g mask="url(&quot;#SvgjsMask1750&quot;)" fill="none"><g transform="translate(0, 0)" stroke-linecap="round"><path d="M12 48.965 L12 91.715" stroke-width="14.25" stroke="rgba(75, 75, 75, 1)"></path><path d="M12 113.09 L12 301.035" stroke-width="14.25" stroke="rgba(15, 23, 42, 1)"></path><path d="M31 59.435 L31 201.935" stroke-width="14.25" stroke="rgba(231, 157, 10, 1)"></path><path d="M31 223.31 L31 251.81" stroke-width="14.25" stroke="rgba(75, 75, 75, 1)"></path><path d="M31 273.185 L31 290.565" stroke-width="14.25" stroke="rgba(75, 75, 75, 1)"></path><path d="M50 91.645 L50 177.14499999999998" stroke-width="14.25" stroke="rgba(15, 23, 42, 1)"></path><path d="M50 198.51999999999998 L50 258.365" stroke-width="14.25" stroke="rgba(75, 75, 75, 1)"></path><path d="M69 91.155 L69 148.155" stroke-width="14.25" stroke="rgba(81, 91, 199, 1)"></path><path d="M69 169.53 L69 183.78" stroke-width="14.25" stroke="rgba(81, 91, 199, 1)"></path><path d="M69 205.155 L69 258.855" stroke-width="14.25" stroke="rgba(81, 91, 199, 1)"></path><path d="M88 159.685 L88 190.315" stroke-width="14.25" stroke="rgba(81, 91, 199, 1)"></path><path d="M107 18.134999999999998 L107 203.385" stroke-width="14.25" stroke="rgba(75, 75, 75, 1)"></path><path d="M107 224.76 L107 331.865" stroke-width="14.25" stroke="rgba(15, 23, 42, 1)"></path><path d="M126 125.915 L126 154.41500000000002" stroke-width="14.25" stroke="rgba(81, 91, 199, 1)"></path><path d="M126 175.79000000000002 L126 224.085" stroke-width="14.25" stroke="rgba(231, 157, 10, 1)"></path><path d="M145 80.245 L145 151.495" stroke-width="14.25" stroke="rgba(75, 75, 75, 1)"></path><path d="M145 172.87 L145 187.12" stroke-width="14.25" stroke="rgba(75, 75, 75, 1)"></path><path d="M145 208.495 L145 269.755" stroke-width="14.25" stroke="rgba(15, 23, 42, 1)"></path><path d="M164 88.865 L164 131.615" stroke-width="14.25" stroke="rgba(15, 23, 42, 1)"></path><path d="M164 152.99 L164 209.99" stroke-width="14.25" stroke="rgba(15, 23, 42, 1)"></path><path d="M164 231.365 L164 261.135" stroke-width="14.25" stroke="rgba(81, 91, 199, 1)"></path><path d="M183 115.795 L183 130.04500000000002" stroke-width="14.25" stroke="rgba(75, 75, 75, 1)"></path><path d="M183 151.42000000000002 L183 179.92000000000002" stroke-width="14.25" stroke="rgba(15, 23, 42, 1)"></path><path d="M183 201.29500000000002 L183 234.205" stroke-width="14.25" stroke="rgba(15, 23, 42, 1)"></path><path d="M202 71.895 L202 200.14499999999998" stroke-width="14.25" stroke="rgba(81, 91, 199, 1)"></path><path d="M202 221.51999999999998 L202 278.105" stroke-width="14.25" stroke="rgba(15, 23, 42, 1)"></path><path d="M221 102.745 L221 247.255" stroke-width="14.25" stroke="rgba(231, 157, 10, 1)"></path><path d="M240 96.605 L240 253.385" stroke-width="14.25" stroke="rgba(75, 75, 75, 1)"></path><path d="M259 122.725 L259 151.225" stroke-width="14.25" stroke="rgba(15, 23, 42, 1)"></path><path d="M259 172.6 L259 186.85" stroke-width="14.25" stroke="rgba(75, 75, 75, 1)"></path><path d="M259 208.225 L259 227.275" stroke-width="14.25" stroke="rgba(231, 157, 10, 1)"></path><path d="M278 29.555 L278 200.555" stroke-width="14.25" stroke="rgba(75, 75, 75, 1)"></path><path d="M278 221.93 L278 278.93" stroke-width="14.25" stroke="rgba(15, 23, 42, 1)"></path><path d="M278 300.305 L278 320.445" stroke-width="14.25" stroke="rgba(231, 157, 10, 1)"></path><path d="M297 127.505 L297 222.505" stroke-width="14.25" stroke="rgba(231, 157, 10, 1)"></path><path d="M316 82.875 L316 125.625" stroke-width="14.25" stroke="rgba(231, 157, 10, 1)"></path><path d="M316 147 L316 267.125" stroke-width="14.25" stroke="rgba(15, 23, 42, 1)"></path><path d="M335 79.555 L335 136.555" stroke-width="14.25" stroke="rgba(231, 157, 10, 1)"></path><path d="M335 157.93 L335 172.18" stroke-width="14.25" stroke="rgba(15, 23, 42, 1)"></path><path d="M335 193.555 L335 270.445" stroke-width="14.25" stroke="rgba(231, 157, 10, 1)"></path><path d="M354 46.205 L354 74.705" stroke-width="14.25" stroke="rgba(75, 75, 75, 1)"></path><path d="M354 96.08 L354 303.795" stroke-width="14.25" stroke="rgba(231, 157, 10, 1)"></path><path d="M373 31.455 L373 159.70499999999998" stroke-width="14.25" stroke="rgba(15, 23, 42, 1)"></path><path d="M373 181.07999999999998 L373 318.545" stroke-width="14.25" stroke="rgba(75, 75, 75, 1)"></path><path d="M392 17.025 L392 59.775" stroke-width="14.25" stroke="rgba(81, 91, 199, 1)"></path><path d="M392 81.15 L392 195.15" stroke-width="14.25" stroke="rgba(75, 75, 75, 1)"></path><path d="M392 216.525 L392 332.985" stroke-width="14.25" stroke="rgba(75, 75, 75, 1)"></path><path d="M411 151.975 L411 198.025" stroke-width="14.25" stroke="rgba(231, 157, 10, 1)"></path><path d="M430 11.105 L430 239.105" stroke-width="14.25" stroke="rgba(81, 91, 199, 1)"></path><path d="M430 260.48 L430 338.895" stroke-width="14.25" stroke="rgba(15, 23, 42, 1)"></path><path d="M449 118.755 L449 133.005" stroke-width="14.25" stroke="rgba(75, 75, 75, 1)"></path><path d="M449 154.38 L449 182.88" stroke-width="14.25" stroke="rgba(75, 75, 75, 1)"></path><path d="M449 204.255 L449 231.245" stroke-width="14.25" stroke="rgba(15, 23, 42, 1)"></path><path d="M468 116.435 L468 173.435" stroke-width="14.25" stroke="rgba(81, 91, 199, 1)"></path><path d="M468 194.81 L468 233.565" stroke-width="14.25" stroke="rgba(75, 75, 75, 1)"></path><path d="M487 11.425 L487 96.925" stroke-width="14.25" stroke="rgba(15, 23, 42, 1)"></path><path d="M487 118.3 L487 260.8" stroke-width="14.25" stroke="rgba(75, 75, 75, 1)"></path><path d="M487 282.175 L487 338.575" stroke-width="14.25" stroke="rgba(75, 75, 75, 1)"></path><path d="M506 162.195 L506 187.805" stroke-width="14.25" stroke="rgba(15, 23, 42, 1)"></path><path d="M525 86.185 L525 128.935" stroke-width="14.25" stroke="rgba(81, 91, 199, 1)"></path><path d="M525 150.31 L525 263.815" stroke-width="14.25" stroke="rgba(15, 23, 42, 1)"></path><path d="M544 133.095 L544 161.595" stroke-width="14.25" stroke="rgba(75, 75, 75, 1)"></path><path d="M544 182.97 L544 216.905" stroke-width="14.25" stroke="rgba(81, 91, 199, 1)"></path><path d="M563 126.755 L563 141.005" stroke-width="14.25" stroke="rgba(75, 75, 75, 1)"></path><path d="M563 162.38 L563 176.63" stroke-width="14.25" stroke="rgba(15, 23, 42, 1)"></path><path d="M563 198.005 L563 223.245" stroke-width="14.25" stroke="rgba(15, 23, 42, 1)"></path><path d="M582 67.525 L582 81.775" stroke-width="14.25" stroke="rgba(231, 157, 10, 1)"></path><path d="M582 103.15 L582 145.9" stroke-width="14.25" stroke="rgba(75, 75, 75, 1)"></path><path d="M582 167.275 L582 282.475" stroke-width="14.25" stroke="rgba(75, 75, 75, 1)"></path><path d="M601 131.185 L601 145.435" stroke-width="14.25" stroke="rgba(15, 23, 42, 1)"></path><path d="M601 166.81 L601 218.815" stroke-width="14.25" stroke="rgba(231, 157, 10, 1)"></path><path d="M620 94.655 L620 165.905" stroke-width="14.25" stroke="rgba(75, 75, 75, 1)"></path><path d="M620 187.28 L620 201.53" stroke-width="14.25" stroke="rgba(81, 91, 199, 1)"></path><path d="M620 222.905 L620 255.34500000000003" stroke-width="14.25" stroke="rgba(75, 75, 75, 1)"></path><path d="M639 88.025 L639 187.775" stroke-width="14.25" stroke="rgba(231, 157, 10, 1)"></path><path d="M639 209.15 L639 261.975" stroke-width="14.25" stroke="rgba(75, 75, 75, 1)"></path><path d="M658 73.485 L658 144.735" stroke-width="14.25" stroke="rgba(75, 75, 75, 1)"></path><path d="M658 166.11 L658 223.11" stroke-width="14.25" stroke="rgba(231, 157, 10, 1)"></path><path d="M658 244.485 L658 276.515" stroke-width="14.25" stroke="rgba(231, 157, 10, 1)"></path><path d="M677 60.565 L677 131.815" stroke-width="14.25" stroke="rgba(75, 75, 75, 1)"></path><path d="M677 153.19 L677 181.69" stroke-width="14.25" stroke="rgba(231, 157, 10, 1)"></path><path d="M677 203.065 L677 289.435" stroke-width="14.25" stroke="rgba(75, 75, 75, 1)"></path><path d="M696 92.625 L696 178.125" stroke-width="14.25" stroke="rgba(15, 23, 42, 1)"></path><path d="M696 199.5 L696 213.75" stroke-width="14.25" stroke="rgba(75, 75, 75, 1)"></path><path d="M696 235.125 L696 257.375" stroke-width="14.25" stroke="rgba(15, 23, 42, 1)"></path><path d="M715 86.035 L715 114.535" stroke-width="14.25" stroke="rgba(231, 157, 10, 1)"></path><path d="M715 135.91 L715 164.41" stroke-width="14.25" stroke="rgba(75, 75, 75, 1)"></path><path d="M715 185.785 L715 263.975" stroke-width="14.25" stroke="rgba(15, 23, 42, 1)"></path><path d="M734 88.605 L734 102.855" stroke-width="14.25" stroke="rgba(231, 157, 10, 1)"></path><path d="M734 124.23 L734 138.48000000000002" stroke-width="14.25" stroke="rgba(75, 75, 75, 1)"></path><path d="M734 159.85500000000002 L734 261.385" stroke-width="14.25" stroke="rgba(15, 23, 42, 1)"></path><path d="M753 74.735 L753 145.985" stroke-width="14.25" stroke="rgba(231, 157, 10, 1)"></path><path d="M753 167.36 L753 275.255" stroke-width="14.25" stroke="rgba(231, 157, 10, 1)"></path><path d="M772 17.965 L772 74.965" stroke-width="14.25" stroke="rgba(81, 91, 199, 1)"></path><path d="M772 96.34 L772 281.59000000000003" stroke-width="14.25" stroke="rgba(75, 75, 75, 1)"></path><path d="M772 302.96500000000003 L772 332.025" stroke-width="14.25" stroke="rgba(81, 91, 199, 1)"></path><path d="M791 153.125 L791 196.875" stroke-width="14.25" stroke="rgba(75, 75, 75, 1)"></path><path d="M810 152.745 L810 197.255" stroke-width="14.25" stroke="rgba(75, 75, 75, 1)"></path><path d="M829 155.385 L829 194.615" stroke-width="14.25" stroke="rgba(75, 75, 75, 1)"></path><path d="M848 134.265 L848 148.515" stroke-width="14.25" stroke="rgba(231, 157, 10, 1)"></path><path d="M848 169.89 L848 215.735" stroke-width="14.25" stroke="rgba(231, 157, 10, 1)"></path><path d="M867 36.595 L867 65.095" stroke-width="14.25" stroke="rgba(15, 23, 42, 1)"></path><path d="M867 86.47 L867 214.72" stroke-width="14.25" stroke="rgba(15, 23, 42, 1)"></path><path d="M867 236.095 L867 313.395" stroke-width="14.25" stroke="rgba(231, 157, 10, 1)"></path><path d="M886 119.735 L886 133.985" stroke-width="14.25" stroke="rgba(15, 23, 42, 1)"></path><path d="M886 155.36 L886 183.86" stroke-width="14.25" stroke="rgba(75, 75, 75, 1)"></path><path d="M886 205.235 L886 230.265" stroke-width="14.25" stroke="rgba(15, 23, 42, 1)"></path><path d="M905 93.235 L905 164.485" stroke-width="14.25" stroke="rgba(75, 75, 75, 1)"></path><path d="M905 185.86 L905 200.11" stroke-width="14.25" stroke="rgba(231, 157, 10, 1)"></path><path d="M905 221.485 L905 256.765" stroke-width="14.25" stroke="rgba(81, 91, 199, 1)"></path><path d="M924 152.325 L924 197.675" stroke-width="14.25" stroke="rgba(81, 91, 199, 1)"></path><path d="M943 86.045 L943 128.79500000000002" stroke-width="14.25" stroke="rgba(75, 75, 75, 1)"></path><path d="M943 150.17000000000002 L943 207.17000000000002" stroke-width="14.25" stroke="rgba(15, 23, 42, 1)"></path><path d="M943 228.54500000000002 L943 263.955" stroke-width="14.25" stroke="rgba(75, 75, 75, 1)"></path><path d="M962 143.275 L962 206.725" stroke-width="14.25" stroke="rgba(81, 91, 199, 1)"></path><path d="M981 160.715 L981 189.285" stroke-width="14.25" stroke="rgba(231, 157, 10, 1)"></path><path d="M1000 50.075 L1000 149.825" stroke-width="14.25" stroke="rgba(15, 23, 42, 1)"></path><path d="M1000 171.2 L1000 299.925" stroke-width="14.25" stroke="rgba(81, 91, 199, 1)"></path><path d="M1019 111.485 L1019 139.985" stroke-width="14.25" stroke="rgba(15, 23, 42, 1)"></path><path d="M1019 161.36 L1019 175.61" stroke-width="14.25" stroke="rgba(15, 23, 42, 1)"></path><path d="M1019 196.985 L1019 238.515" stroke-width="14.25" stroke="rgba(231, 157, 10, 1)"></path><path d="M1038 85.425 L1038 264.575" stroke-width="14.25" stroke="rgba(231, 157, 10, 1)"></path><path d="M1057 138.365 L1057 166.865" stroke-width="14.25" stroke="rgba(15, 23, 42, 1)"></path><path d="M1057 188.24 L1057 211.635" stroke-width="14.25" stroke="rgba(75, 75, 75, 1)"></path><path d="M1076 152.755 L1076 197.245" stroke-width="14.25" stroke="rgba(75, 75, 75, 1)"></path><path d="M1095 123.555 L1095 180.555" stroke-width="14.25" stroke="rgba(75, 75, 75, 1)"></path><path d="M1095 201.93 L1095 226.445" stroke-width="14.25" stroke="rgba(15, 23, 42, 1)"></path><path d="M1114 135.225 L1114 214.775" stroke-width="14.25" stroke="rgba(15, 23, 42, 1)"></path><path d="M1133 38.475 L1133 311.515" stroke-width="14.25" stroke="rgba(75, 75, 75, 1)"></path><path d="M1152 156.565 L1152 193.435" stroke-width="14.25" stroke="rgba(15, 23, 42, 1)"></path><path d="M1171 146.505 L1171 203.495" stroke-width="14.25" stroke="rgba(81, 91, 199, 1)"></path><path d="M1190 93.705 L1190 107.955" stroke-width="14.25" stroke="rgba(15, 23, 42, 1)"></path><path d="M1190 129.32999999999998 L1190 214.82999999999998" stroke-width="14.25" stroke="rgba(81, 91, 199, 1)"></path><path d="M1190 236.20499999999998 L1190 256.305" stroke-width="14.25" stroke="rgba(231, 157, 10, 1)"></path><path d="M1209 113.735 L1209 127.985" stroke-width="14.25" stroke="rgba(231, 157, 10, 1)"></path><path d="M1209 149.36 L1209 163.61" stroke-width="14.25" stroke="rgba(75, 75, 75, 1)"></path><path d="M1209 184.985 L1209 236.265" stroke-width="14.25" stroke="rgba(75, 75, 75, 1)"></path><path d="M1228 152.825 L1228 197.175" stroke-width="14.25" stroke="rgba(15, 23, 42, 1)"></path><path d="M1247 139.875 L1247 210.125" stroke-width="14.25" stroke="rgba(75, 75, 75, 1)"></path><path d="M1266 148.315 L1266 201.685" stroke-width="14.25" stroke="rgba(15, 23, 42, 1)"></path><path d="M1285 86.965 L1285 158.215" stroke-width="14.25" stroke="rgba(75, 75, 75, 1)"></path><path d="M1285 179.59 L1285 208.09" stroke-width="14.25" stroke="rgba(15, 23, 42, 1)"></path><path d="M1285 229.465 L1285 263.035" stroke-width="14.25" stroke="rgba(15, 23, 42, 1)"></path><path d="M1304 61.775 L1304 104.525" stroke-width="14.25" stroke="rgba(231, 157, 10, 1)"></path><path d="M1304 125.9 L1304 168.65" stroke-width="14.25" stroke="rgba(231, 157, 10, 1)"></path><path d="M1304 190.025 L1304 288.225" stroke-width="14.25" stroke="rgba(231, 157, 10, 1)"></path><path d="M1323 130.775 L1323 173.525" stroke-width="14.25" stroke="rgba(231, 157, 10, 1)"></path><path d="M1323 194.9 L1323 219.225" stroke-width="14.25" stroke="rgba(15, 23, 42, 1)"></path><path d="M1342 110.545 L1342 139.04500000000002" stroke-width="14.25" stroke="rgba(15, 23, 42, 1)"></path><path d="M1342 160.42000000000002 L1342 188.92000000000002" stroke-width="14.25" stroke="rgba(75, 75, 75, 1)"></path><path d="M1342 210.29500000000002 L1342 239.455" stroke-width="14.25" stroke="rgba(231, 157, 10, 1)"></path><path d="M1361 59.095 L1361 173.095" stroke-width="14.25" stroke="rgba(75, 75, 75, 1)"></path><path d="M1361 194.47 L1361 237.22" stroke-width="14.25" stroke="rgba(75, 75, 75, 1)"></path><path d="M1361 258.595 L1361 290.895" stroke-width="14.25" stroke="rgba(15, 23, 42, 1)"></path><path d="M1380 19.755000000000003 L1380 62.505" stroke-width="14.25" stroke="rgba(81, 91, 199, 1)"></path><path d="M1380 83.88 L1380 140.88" stroke-width="14.25" stroke="rgba(75, 75, 75, 1)"></path><path d="M1380 162.255 L1380 330.245" stroke-width="14.25" stroke="rgba(15, 23, 42, 1)"></path><path d="M1399 21.035 L1399 106.535" stroke-width="14.25" stroke="rgba(81, 91, 199, 1)"></path><path d="M1399 127.91 L1399 256.15999999999997" stroke-width="14.25" stroke="rgba(15, 23, 42, 1)"></path><path d="M1399 277.53499999999997 L1399 328.975" stroke-width="14.25" stroke="rgba(81, 91, 199, 1)"></path><path d="M1418 126.395 L1418 140.64499999999998" stroke-width="14.25" stroke="rgba(81, 91, 199, 1)"></path><path d="M1418 162.01999999999998 L1418 176.26999999999998" stroke-width="14.25" stroke="rgba(75, 75, 75, 1)"></path><path d="M1418 197.64499999999998 L1418 223.615" stroke-width="14.25" stroke="rgba(75, 75, 75, 1)"></path><path d="M1437 34.435 L1437 77.185" stroke-width="14.25" stroke="rgba(231, 157, 10, 1)"></path><path d="M1437 98.56 L1437 155.56" stroke-width="14.25" stroke="rgba(75, 75, 75, 1)"></path><path d="M1437 176.935 L1437 315.565" stroke-width="14.25" stroke="rgba(231, 157, 10, 1)"></path><path d="M1456 22.325 L1456 93.575" stroke-width="14.25" stroke="rgba(75, 75, 75, 1)"></path><path d="M1456 114.95 L1456 327.675" stroke-width="14.25" stroke="rgba(81, 91, 199, 1)"></path><path d="M1475 153.135 L1475 196.865" stroke-width="14.25" stroke="rgba(231, 157, 10, 1)"></path><path d="M1494 49.405 L1494 300.595" stroke-width="14.25" stroke="rgba(15, 23, 42, 1)"></path><path d="M1513 120.715 L1513 134.965" stroke-width="14.25" stroke="rgba(75, 75, 75, 1)"></path><path d="M1513 156.34 L1513 184.84" stroke-width="14.25" stroke="rgba(81, 91, 199, 1)"></path><path d="M1513 206.215 L1513 229.285" stroke-width="14.25" stroke="rgba(15, 23, 42, 1)"></path><path d="M1532 42.615 L1532 71.11500000000001" stroke-width="14.25" stroke="rgba(15, 23, 42, 1)"></path><path d="M1532 92.49000000000001 L1532 192.24" stroke-width="14.25" stroke="rgba(75, 75, 75, 1)"></path><path d="M1532 213.615 L1532 307.385" stroke-width="14.25" stroke="rgba(81, 91, 199, 1)"></path><path d="M1551 41.835 L1551 98.83500000000001" stroke-width="14.25" stroke="rgba(15, 23, 42, 1)"></path><path d="M1551 120.21000000000001 L1551 308.165" stroke-width="14.25" stroke="rgba(81, 91, 199, 1)"></path><path d="M1570 120.845 L1570 229.155" stroke-width="14.25" stroke="rgba(81, 91, 199, 1)"></path><path d="M1589 109.595 L1589 240.405" stroke-width="14.25" stroke="rgba(231, 157, 10, 1)"></path><path d="M1608 65.945 L1608 194.195" stroke-width="14.25" stroke="rgba(231, 157, 10, 1)"></path><path d="M1608 215.57 L1608 244.07" stroke-width="14.25" stroke="rgba(231, 157, 10, 1)"></path><path d="M1608 265.445 L1608 284.055" stroke-width="14.25" stroke="rgba(231, 157, 10, 1)"></path><path d="M1627 117.645 L1627 232.365" stroke-width="14.25" stroke="rgba(81, 91, 199, 1)"></path><path d="M1646 160.305 L1646 189.695" stroke-width="14.25" stroke="rgba(75, 75, 75, 1)"></path><path d="M1665 93.335 L1665 178.83499999999998" stroke-width="14.25" stroke="rgba(81, 91, 199, 1)"></path><path d="M1665 200.20999999999998 L1665 214.45999999999998" stroke-width="14.25" stroke="rgba(15, 23, 42, 1)"></path><path d="M1665 235.83499999999998 L1665 256.665" stroke-width="14.25" stroke="rgba(75, 75, 75, 1)"></path><path d="M1684 74.825 L1684 103.325" stroke-width="14.25" stroke="rgba(15, 23, 42, 1)"></path><path d="M1684 124.7 L1684 195.95" stroke-width="14.25" stroke="rgba(15, 23, 42, 1)"></path><path d="M1684 217.325 L1684 275.175" stroke-width="14.25" stroke="rgba(15, 23, 42, 1)"></path><path d="M1703 80.635 L1703 194.635" stroke-width="14.25" stroke="rgba(81, 91, 199, 1)"></path><path d="M1703 216.01 L1703 230.26" stroke-width="14.25" stroke="rgba(231, 157, 10, 1)"></path><path d="M1703 251.635 L1703 269.365" stroke-width="14.25" stroke="rgba(81, 91, 199, 1)"></path><path d="M1722 18.564999999999998 L1722 175.315" stroke-width="14.25" stroke="rgba(15, 23, 42, 1)"></path><path d="M1722 196.69 L1722 267.94" stroke-width="14.25" stroke="rgba(81, 91, 199, 1)"></path><path d="M1722 289.315 L1722 331.435" stroke-width="14.25" stroke="rgba(75, 75, 75, 1)"></path><path d="M1741 109.825 L1741 152.575" stroke-width="14.25" stroke="rgba(15, 23, 42, 1)"></path><path d="M1741 173.95 L1741 240.175" stroke-width="14.25" stroke="rgba(231, 157, 10, 1)"></path><path d="M1760 160.625 L1760 189.375" stroke-width="14.25" stroke="rgba(81, 91, 199, 1)"></path><path d="M1779 69.155 L1779 140.405" stroke-width="14.25" stroke="rgba(231, 157, 10, 1)"></path><path d="M1779 161.78 L1779 280.845" stroke-width="14.25" stroke="rgba(15, 23, 42, 1)"></path><path d="M1798 110.575 L1798 153.325" stroke-width="14.25" stroke="rgba(75, 75, 75, 1)"></path><path d="M1798 174.7 L1798 203.2" stroke-width="14.25" stroke="rgba(231, 157, 10, 1)"></path><path d="M1798 224.575 L1798 239.425" stroke-width="14.25" stroke="rgba(81, 91, 199, 1)"></path><path d="M1817 126.435 L1817 140.685" stroke-width="14.25" stroke="rgba(15, 23, 42, 1)"></path><path d="M1817 162.06 L1817 176.31" stroke-width="14.25" stroke="rgba(231, 157, 10, 1)"></path><path d="M1817 197.685 L1817 223.565" stroke-width="14.25" stroke="rgba(15, 23, 42, 1)"></path><path d="M1836 43.425 L1836 71.925" stroke-width="14.25" stroke="rgba(231, 157, 10, 1)"></path><path d="M1836 93.3 L1836 306.575" stroke-width="14.25" stroke="rgba(231, 157, 10, 1)"></path><path d="M1855 34.835 L1855 134.585" stroke-width="14.25" stroke="rgba(15, 23, 42, 1)"></path><path d="M1855 155.96 L1855 315.165" stroke-width="14.25" stroke="rgba(15, 23, 42, 1)"></path><path d="M1874 127.165 L1874 222.835" stroke-width="14.25" stroke="rgba(15, 23, 42, 1)"></path><path d="M1893 87.345 L1893 262.655" stroke-width="14.25" stroke="rgba(75, 75, 75, 1)"></path><path d="M1912 56.615 L1912 293.385" stroke-width="14.25" stroke="rgba(81, 91, 199, 1)"></path><path d="M1931 35.555 L1931 135.305" stroke-width="14.25" stroke="rgba(15, 23, 42, 1)"></path><path d="M1931 156.68 L1931 314.445" stroke-width="14.25" stroke="rgba(75, 75, 75, 1)"></path><path d="M1950 54.735 L1950 140.235" stroke-width="14.25" stroke="rgba(75, 75, 75, 1)"></path><path d="M1950 161.61 L1950 218.61" stroke-width="14.25" stroke="rgba(75, 75, 75, 1)"></path><path d="M1950 239.985 L1950 295.255" stroke-width="14.25" stroke="rgba(81, 91, 199, 1)"></path><path d="M1969 101.405 L1969 115.655" stroke-width="14.25" stroke="rgba(15, 23, 42, 1)"></path><path d="M1969 137.03 L1969 248.595" stroke-width="14.25" stroke="rgba(75, 75, 75, 1)"></path><path d="M1988 23.345 L1988 94.595" stroke-width="14.25" stroke="rgba(15, 23, 42, 1)"></path><path d="M1988 115.97 L1988 326.655" stroke-width="14.25" stroke="rgba(15, 23, 42, 1)"></path></g></g><defs><mask id="SvgjsMask1750"><rect width="2000" height="350" fill="#ffffff"></rect></mask></defs></svg>