<svg xmlns="http://www.w3.org/2000/svg" version="1.1" xmlns:xlink="http://www.w3.org/1999/xlink" xmlns:svgjs="http://svgjs.com/svgjs" width="2000" height="400" preserveAspectRatio="none" viewBox="0 0 2000 400"><g mask="url(&quot;#SvgjsMask1878&quot;)" fill="none"><g transform="translate(0, 0)" stroke-linecap="round"><path d="M25 151.37 L25 248.63" stroke-width="22.5" stroke="rgba(231, 157, 10, 1)"></path><path d="M55 149.41 L55 171.91" stroke-width="22.5" stroke="rgba(15, 23, 42, 1)"></path><path d="M55 205.66 L55 250.57999999999998" stroke-width="22.5" stroke="rgba(179, 179, 179, 1)"></path><path d="M85 78.44 L85 100.94" stroke-width="22.5" stroke="rgba(179, 179, 179, 1)"></path><path d="M85 134.69 L85 202.19" stroke-width="22.5" stroke="rgba(179, 179, 179, 1)"></path><path d="M85 235.94 L85 321.56" stroke-width="22.5" stroke="rgba(81, 91, 199, 1)"></path><path d="M115 47.56 L115 205.06" stroke-width="22.5" stroke="rgba(81, 91, 199, 1)"></path><path d="M115 238.81 L115 261.31" stroke-width="22.5" stroke="rgba(81, 91, 199, 1)"></path><path d="M115 295.06 L115 352.44" stroke-width="22.5" stroke="rgba(81, 91, 199, 1)"></path><path d="M145 15 L145 150" stroke-width="22.5" stroke="rgba(81, 91, 199, 1)"></path><path d="M145 183.75 L145 385" stroke-width="22.5" stroke="rgba(15, 23, 42, 1)"></path><path d="M175 143.58 L175 256.42" stroke-width="22.5" stroke="rgba(15, 23, 42, 1)"></path><path d="M205 40.44 L205 197.94" stroke-width="22.5" stroke="rgba(231, 157, 10, 1)"></path><path d="M205 231.69 L205 359.56" stroke-width="22.5" stroke="rgba(81, 91, 199, 1)"></path><path d="M235 98.66 L235 301.34" stroke-width="22.5" stroke="rgba(231, 157, 10, 1)"></path><path d="M265 185.6 L265 214.4" stroke-width="22.5" stroke="rgba(81, 91, 199, 1)"></path><path d="M295 41.53 L295 176.53" stroke-width="22.5" stroke="rgba(15, 23, 42, 1)"></path><path d="M295 210.28 L295 232.78" stroke-width="22.5" stroke="rgba(231, 157, 10, 1)"></path><path d="M295 266.53 L295 358.47" stroke-width="22.5" stroke="rgba(179, 179, 179, 1)"></path><path d="M325 128.95 L325 173.95" stroke-width="22.5" stroke="rgba(81, 91, 199, 1)"></path><path d="M325 207.7 L325 271.05" stroke-width="22.5" stroke="rgba(231, 157, 10, 1)"></path><path d="M355 16.9 L355 129.4" stroke-width="22.5" stroke="rgba(231, 157, 10, 1)"></path><path d="M355 163.15 L355 275.65" stroke-width="22.5" stroke="rgba(15, 23, 42, 1)"></path><path d="M355 309.4 L355 383.1" stroke-width="22.5" stroke="rgba(15, 23, 42, 1)"></path><path d="M385 106.41 L385 293.6" stroke-width="22.5" stroke="rgba(231, 157, 10, 1)"></path><path d="M415 141.5 L415 164" stroke-width="22.5" stroke="rgba(15, 23, 42, 1)"></path><path d="M415 197.75 L415 258.5" stroke-width="22.5" stroke="rgba(81, 91, 199, 1)"></path><path d="M445 40.370000000000005 L445 152.87" stroke-width="22.5" stroke="rgba(231, 157, 10, 1)"></path><path d="M445 186.62 L445 359.63" stroke-width="22.5" stroke="rgba(231, 157, 10, 1)"></path><path d="M475 122.87 L475 277.13" stroke-width="22.5" stroke="rgba(81, 91, 199, 1)"></path><path d="M505 148.48 L505 170.98" stroke-width="22.5" stroke="rgba(231, 157, 10, 1)"></path><path d="M505 204.73 L505 251.51999999999998" stroke-width="22.5" stroke="rgba(179, 179, 179, 1)"></path><path d="M535 153.75 L535 176.25" stroke-width="22.5" stroke="rgba(179, 179, 179, 1)"></path><path d="M535 210 L535 246.25" stroke-width="22.5" stroke="rgba(81, 91, 199, 1)"></path><path d="M565 82.43 L565 127.43" stroke-width="22.5" stroke="rgba(231, 157, 10, 1)"></path><path d="M565 161.18 L565 317.57" stroke-width="22.5" stroke="rgba(231, 157, 10, 1)"></path><path d="M595 158.2 L595 241.8" stroke-width="22.5" stroke="rgba(179, 179, 179, 1)"></path><path d="M625 41.81 L625 86.81" stroke-width="22.5" stroke="rgba(15, 23, 42, 1)"></path><path d="M625 120.56 L625 188.06" stroke-width="22.5" stroke="rgba(81, 91, 199, 1)"></path><path d="M625 221.81 L625 358.19" stroke-width="22.5" stroke="rgba(179, 179, 179, 1)"></path><path d="M655 107.13 L655 292.87" stroke-width="22.5" stroke="rgba(179, 179, 179, 1)"></path><path d="M685 65.13 L685 222.63" stroke-width="22.5" stroke="rgba(179, 179, 179, 1)"></path><path d="M685 256.38 L685 334.87" stroke-width="22.5" stroke="rgba(231, 157, 10, 1)"></path><path d="M715 156.44 L715 243.56" stroke-width="22.5" stroke="rgba(179, 179, 179, 1)"></path><path d="M745 112.85 L745 157.85" stroke-width="22.5" stroke="rgba(179, 179, 179, 1)"></path><path d="M745 191.6 L745 214.1" stroke-width="22.5" stroke="rgba(15, 23, 42, 1)"></path><path d="M745 247.85 L745 287.15" stroke-width="22.5" stroke="rgba(231, 157, 10, 1)"></path><path d="M775 181.1 L775 218.9" stroke-width="22.5" stroke="rgba(231, 157, 10, 1)"></path><path d="M805 143.51 L805 166.01" stroke-width="22.5" stroke="rgba(15, 23, 42, 1)"></path><path d="M805 199.76 L805 256.49" stroke-width="22.5" stroke="rgba(231, 157, 10, 1)"></path><path d="M835 133.75 L835 266.25" stroke-width="22.5" stroke="rgba(81, 91, 199, 1)"></path><path d="M865 84.83 L865 174.82999999999998" stroke-width="22.5" stroke="rgba(81, 91, 199, 1)"></path><path d="M865 208.57999999999998 L865 253.57999999999998" stroke-width="22.5" stroke="rgba(81, 91, 199, 1)"></path><path d="M865 287.33 L865 315.18" stroke-width="22.5" stroke="rgba(81, 91, 199, 1)"></path><path d="M895 155.84 L895 244.16" stroke-width="22.5" stroke="rgba(231, 157, 10, 1)"></path><path d="M925 48.38 L925 351.63" stroke-width="22.5" stroke="rgba(15, 23, 42, 1)"></path><path d="M955 153.67 L955 176.17" stroke-width="22.5" stroke="rgba(231, 157, 10, 1)"></path><path d="M955 209.92 L955 246.32999999999998" stroke-width="22.5" stroke="rgba(179, 179, 179, 1)"></path><path d="M985 139.04000000000002 L985 260.96" stroke-width="22.5" stroke="rgba(179, 179, 179, 1)"></path><path d="M1015 56.94 L1015 191.94" stroke-width="22.5" stroke="rgba(231, 157, 10, 1)"></path><path d="M1015 225.69 L1015 343.06" stroke-width="22.5" stroke="rgba(15, 23, 42, 1)"></path><path d="M1045 156.28 L1045 243.72" stroke-width="22.5" stroke="rgba(231, 157, 10, 1)"></path><path d="M1075 11.48 L1075 168.98" stroke-width="22.5" stroke="rgba(81, 91, 199, 1)"></path><path d="M1075 202.73 L1075 388.52" stroke-width="22.5" stroke="rgba(231, 157, 10, 1)"></path><path d="M1105 145.09 L1105 167.59" stroke-width="22.5" stroke="rgba(81, 91, 199, 1)"></path><path d="M1105 201.34 L1105 254.91000000000003" stroke-width="22.5" stroke="rgba(179, 179, 179, 1)"></path><path d="M1135 171.69 L1135 228.31" stroke-width="22.5" stroke="rgba(81, 91, 199, 1)"></path><path d="M1165 41.989999999999995 L1165 266.99" stroke-width="22.5" stroke="rgba(81, 91, 199, 1)"></path><path d="M1165 300.74 L1165 358.01" stroke-width="22.5" stroke="rgba(231, 157, 10, 1)"></path><path d="M1195 142.41 L1195 164.91" stroke-width="22.5" stroke="rgba(179, 179, 179, 1)"></path><path d="M1195 198.66 L1195 257.6" stroke-width="22.5" stroke="rgba(15, 23, 42, 1)"></path><path d="M1225 96.94 L1225 119.44" stroke-width="22.5" stroke="rgba(231, 157, 10, 1)"></path><path d="M1225 153.19 L1225 220.69" stroke-width="22.5" stroke="rgba(179, 179, 179, 1)"></path><path d="M1225 254.44 L1225 303.06" stroke-width="22.5" stroke="rgba(179, 179, 179, 1)"></path><path d="M1255 181.03 L1255 218.97" stroke-width="22.5" stroke="rgba(179, 179, 179, 1)"></path><path d="M1285 146.99 L1285 253.01" stroke-width="22.5" stroke="rgba(179, 179, 179, 1)"></path><path d="M1315 15.8 L1315 263.3" stroke-width="22.5" stroke="rgba(81, 91, 199, 1)"></path><path d="M1315 297.05 L1315 319.55" stroke-width="22.5" stroke="rgba(15, 23, 42, 1)"></path><path d="M1315 353.3 L1315 384.2" stroke-width="22.5" stroke="rgba(179, 179, 179, 1)"></path><path d="M1345 132.11 L1345 267.88" stroke-width="22.5" stroke="rgba(81, 91, 199, 1)"></path><path d="M1375 177.38 L1375 222.62" stroke-width="22.5" stroke="rgba(81, 91, 199, 1)"></path><path d="M1405 47.72 L1405 115.22" stroke-width="22.5" stroke="rgba(81, 91, 199, 1)"></path><path d="M1405 148.97 L1405 261.47" stroke-width="22.5" stroke="rgba(231, 157, 10, 1)"></path><path d="M1405 295.22 L1405 352.28" stroke-width="22.5" stroke="rgba(179, 179, 179, 1)"></path><path d="M1435 144.5 L1435 167" stroke-width="22.5" stroke="rgba(179, 179, 179, 1)"></path><path d="M1435 200.75 L1435 255.5" stroke-width="22.5" stroke="rgba(179, 179, 179, 1)"></path><path d="M1465 74.57 L1465 187.07" stroke-width="22.5" stroke="rgba(231, 157, 10, 1)"></path><path d="M1465 220.82 L1465 265.82" stroke-width="22.5" stroke="rgba(231, 157, 10, 1)"></path><path d="M1465 299.57 L1465 325.43" stroke-width="22.5" stroke="rgba(179, 179, 179, 1)"></path><path d="M1495 148.24 L1495 170.74" stroke-width="22.5" stroke="rgba(231, 157, 10, 1)"></path><path d="M1495 204.49 L1495 251.76" stroke-width="22.5" stroke="rgba(15, 23, 42, 1)"></path><path d="M1525 137.23000000000002 L1525 159.73000000000002" stroke-width="22.5" stroke="rgba(81, 91, 199, 1)"></path><path d="M1525 193.48000000000002 L1525 262.76" stroke-width="22.5" stroke="rgba(81, 91, 199, 1)"></path><path d="M1555 105.56 L1555 128.06" stroke-width="22.5" stroke="rgba(81, 91, 199, 1)"></path><path d="M1555 161.81 L1555 229.31" stroke-width="22.5" stroke="rgba(179, 179, 179, 1)"></path><path d="M1555 263.06 L1555 294.44" stroke-width="22.5" stroke="rgba(231, 157, 10, 1)"></path><path d="M1585 155.07 L1585 244.93" stroke-width="22.5" stroke="rgba(231, 157, 10, 1)"></path><path d="M1615 83.92 L1615 173.92000000000002" stroke-width="22.5" stroke="rgba(15, 23, 42, 1)"></path><path d="M1615 207.67000000000002 L1615 316.08" stroke-width="22.5" stroke="rgba(231, 157, 10, 1)"></path><path d="M1645 57.08 L1645 214.57999999999998" stroke-width="22.5" stroke="rgba(179, 179, 179, 1)"></path><path d="M1645 248.32999999999998 L1645 270.83" stroke-width="22.5" stroke="rgba(231, 157, 10, 1)"></path><path d="M1645 304.58 L1645 342.92" stroke-width="22.5" stroke="rgba(15, 23, 42, 1)"></path><path d="M1675 170.19 L1675 229.81" stroke-width="22.5" stroke="rgba(15, 23, 42, 1)"></path><path d="M1705 145.59 L1705 168.09" stroke-width="22.5" stroke="rgba(81, 91, 199, 1)"></path><path d="M1705 201.84 L1705 254.39999999999998" stroke-width="22.5" stroke="rgba(179, 179, 179, 1)"></path><path d="M1735 58.25 L1735 260.75" stroke-width="22.5" stroke="rgba(231, 157, 10, 1)"></path><path d="M1735 294.5 L1735 341.75" stroke-width="22.5" stroke="rgba(15, 23, 42, 1)"></path><path d="M1765 181.13 L1765 218.88" stroke-width="22.5" stroke="rgba(15, 23, 42, 1)"></path><path d="M1795 69.41 L1795 330.59" stroke-width="22.5" stroke="rgba(15, 23, 42, 1)"></path><path d="M1825 138.32999999999998 L1825 160.82999999999998" stroke-width="22.5" stroke="rgba(231, 157, 10, 1)"></path><path d="M1825 194.57999999999998 L1825 261.67" stroke-width="22.5" stroke="rgba(15, 23, 42, 1)"></path><path d="M1855 149.37 L1855 171.87" stroke-width="22.5" stroke="rgba(81, 91, 199, 1)"></path><path d="M1855 205.62 L1855 250.63" stroke-width="22.5" stroke="rgba(15, 23, 42, 1)"></path><path d="M1885 149.44 L1885 171.94" stroke-width="22.5" stroke="rgba(15, 23, 42, 1)"></path><path d="M1885 205.69 L1885 250.56" stroke-width="22.5" stroke="rgba(179, 179, 179, 1)"></path><path d="M1915 40.510000000000005 L1915 175.51" stroke-width="22.5" stroke="rgba(179, 179, 179, 1)"></path><path d="M1915 209.26 L1915 276.76" stroke-width="22.5" stroke="rgba(231, 157, 10, 1)"></path><path d="M1915 310.51 L1915 359.49" stroke-width="22.5" stroke="rgba(81, 91, 199, 1)"></path><path d="M1945 142.28 L1945 257.72" stroke-width="22.5" stroke="rgba(15, 23, 42, 1)"></path><path d="M1975 142.92 L1975 187.92" stroke-width="22.5" stroke="rgba(231, 157, 10, 1)"></path><path d="M1975 221.67 L1975 257.08" stroke-width="22.5" stroke="rgba(15, 23, 42, 1)"></path></g></g><defs><mask id="SvgjsMask1878"><rect width="2000" height="400" fill="#ffffff"></rect></mask></defs></svg>